<svg xmlns="http://www.w3.org/2000/svg" width="1200" height="630" viewBox="0 0 1200 630">
  <defs>
    <linearGradient id="bg" x1="0" y1="0" x2="1" y2="1">
      <stop offset="0" stop-color="#f8fbf8"/>
      <stop offset="1" stop-color="#e6f2ed"/>
    </linearGradient>
    <linearGradient id="drop" x1="0" y1="0" x2="0" y2="1">
      <stop offset="0" stop-color="#55a8bd"/>
      <stop offset="1" stop-color="#28778f"/>
    </linearGradient>
    <filter id="shadow" x="-20%" y="-20%" width="140%" height="140%">
      <feDropShadow dx="0" dy="16" stdDeviation="20" flood-color="#173449" flood-opacity=".13"/>
    </filter>
  </defs>
  <rect width="1200" height="630" fill="url(#bg)"/>
  <circle cx="1070" cy="90" r="180" fill="#d6ebe3" opacity=".75"/>
  <circle cx="100" cy="600" r="210" fill="#e1efe9"/>
  <g transform="translate(730 90)" filter="url(#shadow)">
    <rect x="0" y="0" width="380" height="450" rx="42" fill="#ffffff"/>
    <path d="M72 224V148L190 60l118 88v176" fill="none" stroke="#18384c" stroke-width="22" stroke-linecap="round" stroke-linejoin="round"/>
    <path d="M120 315h140" stroke="#7ba995" stroke-width="18" stroke-linecap="round"/>
    <path d="M146 359h88" stroke="#b5d1c5" stroke-width="18" stroke-linecap="round"/>
    <path d="M290 214c0 39-27 68-61 68s-61-29-61-68c0-45 61-112 61-112s61 67 61 112z" fill="url(#drop)"/>
    <circle cx="210" cy="204" r="10" fill="#ffffff" opacity=".75"/>
  </g>
  <g font-family="DejaVu Sans, Arial, sans-serif" fill="#18384c">
    <text x="82" y="116" font-size="28" font-weight="700" letter-spacing="2">MAISON MOINS HUMIDE</text>
    <text x="82" y="240" font-size="66" font-weight="800">Comprendre.</text>
    <text x="82" y="320" font-size="66" font-weight="800">Mesurer.</text>
    <text x="82" y="400" font-size="66" font-weight="800">Agir.</text>
    <text x="86" y="474" font-size="29" fill="#4d6674">Des conseils pratiques contre l’humidité,</text>
    <text x="86" y="515" font-size="29" fill="#4d6674">la condensation et les moisissures.</text>
  </g>
  <rect x="82" y="565" width="520" height="8" rx="4" fill="#7ba995"/>
</svg>
